<svg width="10" height="10" viewBox="0 0 10 10" fill="none" xmlns="http://www.w3.org/2000/svg">
<g clip-path="url(#clip0_26_9479)">
<path d="M2.4285 2.91572L3.48516 3.97239C3.31975 4.27391 3.21168 4.4263 2.896 4.56155L0.833496 2.49905L2.896 0.436554C3.23972 0.548943 3.36976 0.687284 3.48516 1.02572L2.4285 2.08239H5.41683C6.30089 2.08239 7.14873 2.43358 7.77385 3.0587C8.39897 3.68382 8.75016 4.53167 8.75016 5.41572C8.75016 6.29978 8.39897 7.14762 7.77385 7.77274C7.14873 8.39786 6.30089 8.74905 5.41683 8.74905H1.66683V7.91572H5.41683C6.07987 7.91572 6.71576 7.65233 7.1846 7.18349C7.65344 6.71465 7.91683 6.07876 7.91683 5.41572C7.91683 4.75268 7.65344 4.11679 7.1846 3.64795C6.71576 3.17911 6.07987 2.91572 5.41683 2.91572L2.4285 2.91572Z" fill="#464646"/>
</g>
<defs>
<clipPath id="clip0_26_9479">
<rect width="10" height="10" fill="white" transform="translate(0 -0.000976562)"/>
</clipPath>
</defs>
</svg>
