<svg width="20" height="20" viewBox="0 0 20 20" fill="none" xmlns="http://www.w3.org/2000/svg">
<path d="M13.8702 6.46918C13.8702 6.37096 13.7899 6.2906 13.6917 6.2906L12.2184 6.2973L9.99969 8.94239L7.78317 6.29953L6.30772 6.29284C6.20951 6.29284 6.12915 6.37096 6.12915 6.47141C6.12915 6.51382 6.14478 6.554 6.17156 6.58748L9.07558 10.0473L6.17156 13.5049C6.14459 13.5376 6.12962 13.5786 6.12915 13.621C6.12915 13.7192 6.20951 13.7995 6.30772 13.7995L7.78317 13.7928L9.99969 11.1477L12.2162 13.7906L13.6894 13.7973C13.7876 13.7973 13.868 13.7192 13.868 13.6187C13.868 13.5763 13.8524 13.5361 13.8256 13.5027L10.926 10.0451L13.83 6.58525C13.8568 6.554 13.8702 6.51159 13.8702 6.46918Z" fill="#D60103"/>
<path d="M10 -0.000900269C4.47768 -0.000900269 0 4.47678 0 9.9991C0 15.5214 4.47768 19.9991 10 19.9991C15.5223 19.9991 20 15.5214 20 9.9991C20 4.47678 15.5223 -0.000900269 10 -0.000900269ZM10 18.3027C5.41518 18.3027 1.69643 14.5839 1.69643 9.9991C1.69643 5.41428 5.41518 1.69553 10 1.69553C14.5848 1.69553 18.3036 5.41428 18.3036 9.9991C18.3036 14.5839 14.5848 18.3027 10 18.3027Z" fill="#D60103"/>
</svg>
