<svg width="20" height="20" viewBox="0 0 20 20" fill="none" xmlns="http://www.w3.org/2000/svg">
<g clip-path="url(#clip0_26_9492)">
<path d="M10 7.00293V10.0029V7.00293ZM10 10.0029V13.0029V10.0029ZM10 10.0029H13H10ZM10 10.0029H7H10ZM19 10.0029C19 11.1848 18.7672 12.3552 18.3149 13.4471C17.8626 14.539 17.1997 15.5312 16.364 16.3669C15.5282 17.2026 14.5361 17.8656 13.4441 18.3178C12.3522 18.7701 11.1819 19.0029 10 19.0029C8.8181 19.0029 7.64778 18.7701 6.55585 18.3178C5.46392 17.8656 4.47177 17.2026 3.63604 16.3669C2.80031 15.5312 2.13738 14.539 1.68508 13.4471C1.23279 12.3552 1 11.1848 1 10.0029C1 7.61598 1.94821 5.3268 3.63604 3.63897C5.32387 1.95114 7.61305 1.00293 10 1.00293C12.3869 1.00293 14.6761 1.95114 16.364 3.63897C18.0518 5.3268 19 7.61598 19 10.0029Z" stroke="#1859FF" stroke-width="1.5" stroke-linecap="round" stroke-linejoin="round"/>
</g>
<defs>
<clipPath id="clip0_26_9492">
<rect width="20" height="20" fill="white"/>
</clipPath>
</defs>
</svg>
