<svg width="20" height="20" viewBox="0 0 20 20" fill="none" xmlns="http://www.w3.org/2000/svg">
<path d="M14.174 6.44922H13.1272C12.8995 6.44922 12.683 6.55859 12.549 6.74609L9.04011 11.6122L7.45083 9.40681C7.3169 9.22154 7.10261 9.10993 6.8727 9.10993H5.82583C5.68074 9.10993 5.59592 9.27511 5.68074 9.39342L8.46199 13.2506C8.52769 13.3423 8.61431 13.417 8.71465 13.4685C8.815 13.5201 8.92618 13.547 9.039 13.547C9.15181 13.547 9.263 13.5201 9.36334 13.4685C9.46369 13.417 9.5503 13.3423 9.61601 13.2506L14.3169 6.7327C14.404 6.6144 14.3191 6.44922 14.174 6.44922Z" fill="#52C41A"/>
<path d="M10 -0.000976562C4.47768 -0.000976562 0 4.4767 0 9.99902C0 15.5213 4.47768 19.999 10 19.999C15.5223 19.999 20 15.5213 20 9.99902C20 4.4767 15.5223 -0.000976562 10 -0.000976562ZM10 18.3026C5.41518 18.3026 1.69643 14.5838 1.69643 9.99902C1.69643 5.4142 5.41518 1.69545 10 1.69545C14.5848 1.69545 18.3036 5.4142 18.3036 9.99902C18.3036 14.5838 14.5848 18.3026 10 18.3026Z" fill="#52C41A"/>
</svg>
