<svg width="20" height="20" viewBox="0 0 20 20" fill="none" xmlns="http://www.w3.org/2000/svg">
<path d="M10 -0.000915527C4.47768 -0.000915527 0 4.47676 0 9.99908C0 15.5214 4.47768 19.9991 10 19.9991C15.5223 19.9991 20 15.5214 20 9.99908C20 4.47676 15.5223 -0.000915527 10 -0.000915527ZM10 18.3027C5.41518 18.3027 1.69643 14.5839 1.69643 9.99908C1.69643 5.41426 5.41518 1.69551 10 1.69551C14.5848 1.69551 18.3036 5.41426 18.3036 9.99908C18.3036 14.5839 14.5848 18.3027 10 18.3027Z" fill="#FAAD14"/>
<path d="M8.92822 13.9277C8.92822 14.2118 9.04111 14.4843 9.24204 14.6853C9.44297 14.8862 9.71549 14.9991 9.99965 14.9991C10.2838 14.9991 10.5563 14.8862 10.7573 14.6853C10.9582 14.4843 11.0711 14.2118 11.0711 13.9277C11.0711 13.6435 10.9582 13.371 10.7573 13.17C10.5563 12.9691 10.2838 12.8562 9.99965 12.8562C9.71549 12.8562 9.44297 12.9691 9.24204 13.17C9.04111 13.371 8.92822 13.6435 8.92822 13.9277ZM9.46394 11.4277H10.5354C10.6336 11.4277 10.7139 11.3473 10.7139 11.2491V5.17766C10.7139 5.07944 10.6336 4.99908 10.5354 4.99908H9.46394C9.36572 4.99908 9.28537 5.07944 9.28537 5.17766V11.2491C9.28537 11.3473 9.36572 11.4277 9.46394 11.4277Z" fill="#FAAD14"/>
</svg>
